<?xml version="1.0" encoding="utf-8"?>
<!-- Generator: Adobe Illustrator 26.0.1, SVG Export Plug-In . SVG Version: 6.00 Build 0)  -->
<svg version="1.1" id="Layer_1" xmlns="http://www.w3.org/2000/svg" xmlns:xlink="http://www.w3.org/1999/xlink" x="0px" y="0px"
	 viewBox="0 0 155.91 100" style="enable-background:new 0 0 155.91 100;" xml:space="preserve">
<style type="text/css">
	.st0{fill:#FFFFFF;}
	.st1{fill:#0275D8;}
</style>
<path class="st0" d="M112.24,82.18H34.82c-16.56,0-29.98-13.42-29.98-29.97c0-8.27,3.35-15.77,8.78-21.19
	c5.43-5.42,12.92-8.78,21.2-8.78h13.11c-0.05,0.62-0.08,1.25-0.08,1.88c0,12.62,10.23,22.85,22.85,22.85s22.85-10.23,22.85-22.85
	c0-0.63-0.03-1.26-0.08-1.88h18.77c16.55,0,29.97,13.42,29.97,29.97c-0.14,3.04-0.2,5.9-0.2,8.59
	C142.01,116.47,168.51,101.16,112.24,82.18z"/>
<circle class="st0" cx="70.63" cy="23.24" r="20.56"/>
<g>
	<g>
		<path class="st1" d="M59.6,61.32c0,6.02-1.57,8.85-6.22,8.85c-4.35,0-5.87-3-5.87-9c0-5.62,1.52-8.57,6.05-8.57
			C58,52.6,59.6,55.5,59.6,61.32z M52.8,61.22c0,4.8,0.1,5.35,0.75,5.35c0.67,0,0.75-0.58,0.75-5.35c0-4.57-0.08-5.02-0.75-5.02
			C52.97,56.2,52.8,56.62,52.8,61.22z M58.2,67.54l2.52,1.5l-2.15,2.95l-3.75-2.22L58.2,67.54z"/>
		<path class="st1" d="M66.15,52.97v12.27c0,0.78,0.1,1.35,0.72,1.35c0.62,0,0.68-0.55,0.68-1.35V52.97h5v11.82
			c0,4.2-2.57,5.37-5.82,5.37c-3.47,0-5.52-1.4-5.52-5.42V52.97H66.15z"/>
		<path class="st1" d="M79.35,52.97v16.85H74.4V52.97H79.35z"/>
		<path class="st1" d="M80.7,66.99l4.87-10.27h-4.52v-3.75h9.85v3.15l-4.37,9.92h4.67l-0.5,3.77h-10V66.99z"/>
	</g>
</g>
<g>
	<g>
		<path class="st1" d="M67.53,25.15V24.4c0-1.5,0.53-2.42,1.58-3.72c0.57-0.73,0.75-1.19,0.75-1.94c0-0.62-0.13-0.81-0.46-0.81
			c-0.42,0-0.48,0.55-0.48,1.56h-3.83c0.04-2.29,0.97-4.31,4.64-4.31c3.39,0,4.47,1.76,4.47,3.83c0,1.61-0.55,2.22-1.47,3.45
			c-0.81,1.14-0.99,1.63-0.99,2.31v0.37H67.53z M67.53,30.3v-4.38h4.2v4.38H67.53z"/>
	</g>
</g>
<g>
	<g>
		<path class="st1" d="M76.27,29.43l1.42-4.37l4.02,1.31l-1.42,4.37L76.27,29.43z M78.26,24.08l1.57-6.38l0.8-2.45l4.41,1.44
			l-0.78,2.41l-2.48,6.13L78.26,24.08z"/>
	</g>
</g>
<g>
	<g>
		<path class="st1" d="M58.69,26l-1.78-6.33l-0.51-2.52l4.55-0.92l0.5,2.48l0.86,6.56L58.69,26z M59.58,31.63l-0.91-4.51l4.14-0.84
			l0.91,4.51L59.58,31.63z"/>
	</g>
</g>
</svg>
